<?xml version="1.0" encoding="iso-8859-1"?>
<!-- Generator: Adobe Illustrator 23.0.1, SVG Export Plug-In . SVG Version: 6.00 Build 0)  -->
<svg version="1.1" id="Layer_1" xmlns="http://www.w3.org/2000/svg" xmlns:xlink="http://www.w3.org/1999/xlink" x="0px" y="0px"
	 viewBox="0 0 366 632.763" style="enable-background:new 0 0 366 632.763;" xml:space="preserve">
<g>
	<g>
		<defs>
			
				<rect id="SVGID_1_" x="-66" y="88.763" transform="matrix(0.8894 -0.4571 0.4571 0.8894 -136.3511 124.9186)" width="512" height="511"/>
		</defs>
		<clipPath id="SVGID_2_">
			<use xlink:href="#SVGID_1_"  style="overflow:visible;"/>
		</clipPath>
		<path style="clip-path:url(#SVGID_2_);fill:#F47D20;" d="M207.509,623.638c-9.248,4.753-20.177,5.802-30.517,2.491L45.181,583.963
			c-15.295-4.894-27.762-15.453-35.103-29.735c-7.341-14.283-8.67-30.569-3.745-45.855l42.445-131.722
			c4.986-15.483,18.689-26.343,34.908-27.668c16.198-1.324,31.459,7.153,38.88,21.592l42.017,81.757
			C305.827,379.742,361.682,205.774,289.093,64.53l-14.625-28.458c-5.05-9.825-1.179-21.881,8.646-26.93s21.881-1.179,26.93,8.646
			l14.625,28.458c40.048,77.924,47.355,166.781,20.572,250.203c-26.785,83.417-84.448,151.415-162.372,191.463
			c-19.619,10.083-43.783,2.325-53.864-17.291l-42.019-81.76c-0.002-0.004-0.004-0.007-0.006-0.011
			c-0.034,0.001-0.076,0.004-0.113,0.01c-0.003,0.02-0.012,0.038-0.019,0.058L44.405,520.643c-1.643,5.1-1.2,10.535,1.249,15.301
			c2.45,4.766,6.61,8.289,11.714,9.923l131.811,42.166l0.057,0.018c0.026-0.026,0.055-0.054,0.076-0.083
			c-0.001-0.003-0.003-0.006-0.007-0.013l-10.021-19.498c-5.05-9.825-1.175-21.883,8.65-26.932
			c9.822-5.048,21.881-1.179,26.93,8.646l10.021,19.498c7.421,14.439,5.429,31.783-5.077,44.182
			C216.315,617.98,212.12,621.268,207.509,623.638L207.509,623.638z M207.509,623.638"/>
	</g>
</g>
</svg>
