<?xml version="1.0" encoding="utf-8"?>
<!-- Generator: Adobe Illustrator 23.0.1, SVG Export Plug-In . SVG Version: 6.00 Build 0)  -->
<svg version="1.1" id="Layer_1" xmlns="http://www.w3.org/2000/svg" xmlns:xlink="http://www.w3.org/1999/xlink" x="0px" y="0px"
	 viewBox="0 0 568 636.7" style="enable-background:new 0 0 568 636.7;" xml:space="preserve">
<style type="text/css">
	.st0{fill:#EC8C92;}
	.st1{fill:#FFFFFF;}
	.st2{fill:#274D76;}
	.st3{fill:#FFF3A1;}
	.st4{fill:#F2BDBA;}
	.st5{fill:#93B4F6;}
	.st6{fill:#74BAAB;}
</style>
<g id="BG">
	<g>
		<g>
			<circle class="st0" cx="278.2" cy="316.3" r="244.9"/>
		</g>
	</g>
	<path class="st1" d="M65.1,264.2l-1.3-0.2c0.1-0.4,6.8-37.9,32.8-66.7l1,0.9C71.8,226.6,65.2,263.8,65.1,264.2z"/>
	<path class="st1" d="M100.6,173.5l-1.1-0.7c0.2-0.3,21-30.5,54.5-45.3l0.5,1.2C121.5,143.2,100.8,173.2,100.6,173.5z"/>
	<path class="st1" d="M508.8,311.8h-1.3c0-46.6-21.1-88.8-21.3-89.2l1.2-0.6C487.5,222.5,508.8,265,508.8,311.8z"/>
	<path class="st1" d="M483.5,287.6c-1-18.6-7-34.2-7.1-34.3l1.2-0.5c0.1,0.2,6.2,16,7.2,34.7L483.5,287.6z"/>
	<g>
		<path d="M24.4,255.4l-1.3-0.3c0.1-0.4,8.3-37.7,37-75.5l1,0.8C32.6,217.9,24.5,255,24.4,255.4z"/>
		<path d="M65,151l-1-0.8c0.1-0.1,7.7-9.2,17.4-18.3l0.9,0.9C72.6,141.9,65,150.9,65,151z"/>
		<path d="M97.1,132.7l-1-0.8c0.1-0.1,11.2-13,32.5-27.5c19.6-13.4,52-30.9,95.4-38.6l0.2,1.3c-43.1,7.7-75.4,25.1-94.9,38.4
			C108.2,119.9,97.2,132.6,97.1,132.7z"/>
		<path d="M522.5,232.8c-10.9-44.5-45.6-82.9-45.9-83.3l1-0.9c0.4,0.4,35.2,39.1,46.2,83.9L522.5,232.8z"/>
		<path d="M532.1,297.6c-1.3-16.2-4.4-30.4-6.7-39.4l1.3-0.3c2.4,9.1,5.5,23.3,6.8,39.6L532.1,297.6z"/>
		<path d="M539.2,358.8l-1.3-0.3c1.1-4.8,2.1-10.1,2.9-15.6l1.3,0.2C541.3,348.7,540.3,353.9,539.2,358.8z"/>
		<path d="M544.5,318.8l-1.3-0.1c1-18.7,0.1-36.7-2.3-44.8l1.2-0.4C544.6,281.8,545.5,300,544.5,318.8z"/>
		<path d="M524,378l-1.2-0.4c2.3-7.1,4.2-16.9,5.7-29.3l1.3,0.2C528.3,360.9,526.3,370.8,524,378z"/>
		<path d="M531,337.6l-1.3-0.1c0.5-5.1,0.7-8.6,0.7-8.6l1.3,0.1C531.7,329,531.5,332.4,531,337.6z"/>
		<path d="M399.6,93.1c-34-21.6-91-29.1-91.5-29.2l0.2-1.3c0.1,0,14.6,1.9,33,6.4c17.1,4.2,41.1,11.5,59,23L399.6,93.1z"/>
		<path d="M371.3,69.8c-9.1-4-30.3-8.8-30.5-8.9l0.3-1.3c0.2,0,21.5,4.9,30.8,8.9L371.3,69.8z"/>
		<path d="M95.2,503.5c-2.8-2.2-5.5-4.5-8.1-6.8l0.9-1c2.6,2.3,5.3,4.6,8,6.7L95.2,503.5z"/>
		<path d="M73.3,483.2c-37.2-40.6-44.3-84.8-44.4-85.2l1.3-0.2c0.1,0.4,7.1,44.3,44.1,84.6L73.3,483.2z"/>
		<path d="M83.5,479.8c-13.3-11-25.8-36-25.9-36.3l1.2-0.6c0.1,0.2,12.5,25.1,25.5,35.9L83.5,479.8z"/>
		<path d="M212.4,563.1c-18.9-3.6-37.6-10.1-55.6-19.1l0.6-1.2c17.9,9,36.4,15.4,55.2,19L212.4,563.1z"/>
		<path d="M133.9,530.6c-9.3-6.2-14.5-10.8-14.6-10.9l0.9-1c0.1,0,5.2,4.6,14.4,10.8L133.9,530.6z"/>
		<path d="M289.9,576.8l-0.1-1.3c4.8-0.2,9.5-0.6,14-1.1l0.1,1.3C299.5,576.2,294.7,576.5,289.9,576.8z"/>
		<path d="M272.9,577.1c-29.7-0.3-54.6-4.8-54.8-4.8l0.2-1.3c0.2,0,25,4.5,54.6,4.8L272.9,577.1z"/>
	</g>
	<path class="st1" d="M130.9,491.9c-40.9-28.7-56-74.2-56.2-74.7l1.2-0.4c0.1,0.5,15.1,45.6,55.7,74L130.9,491.9z"/>
	<path class="st1" d="M220.4,541.6c-32.1-5.6-64.3-27.1-64.6-27.4l0.7-1.1c0.3,0.2,32.3,21.6,64.1,27.2L220.4,541.6z"/>
	<path class="st1" d="M167.5,502.6c-8.6-2.7-18.9-12.3-19.3-12.7l0.9-0.9c0.1,0.1,10.5,9.8,18.8,12.4L167.5,502.6z"/>
</g>
<g id="Astro">
	<g>
		<path class="st1" d="M334.1,62.1c-6.9,4.2-37.1,21.9-58.9,38.5c-3.5,2.6-6,6.3-7.4,10.4c-2.8,8.6-5.4,18.2-6.1,21
			c-0.2,0.6-0.1,1.3,0.2,1.9c2,3.6,13.2,15.9,74,37.5l14.3-30.9c0,0-9-57.5-11.8-76.6C338.2,61.8,336,60.9,334.1,62.1z"/>
	</g>
	<g>
		<path class="st2" d="M471.4,407.4l-74.9,8.8c-12.1,1.4-22.8,8.9-28.2,19.8l-33.5,67.3c-1.4,2.8-4.6,4.4-7.7,3.7l-11.9-2.6
			c-8.4-1.8-16.7,3.1-19.1,11.3l-1.9,6.4c-1,3.6,0.6,7.4,3.9,9.1l55,28.5c3.6,1.9,8.1,0.6,10.2-2.9l55.2-90L495,462L471.4,407.4z"/>
	</g>
	<g>
		<polygon class="st2" points="429.1,349.9 434.5,336.2 479.7,338.6 463.3,400.6 		"/>
	</g>
	<g>
		<path class="st2" d="M423.4,316.8c0,0,5-12.8,4.9-19.8c-0.1-9.3,0.9-28.2-5-27.3c-3.6,0.5-4.7,9.3-5.1,13c-0.2,1.5-0.7,2.9-1.7,4
			c-1.4,1.6-3.4,2.2-4.5-5c-1.7-11.8-1.3-34.4-8.2-30.3c-3.5,2.1-1.6,22.7-3.6,21.8c-2-0.9-1.7-32-10.1-28.6
			c-2.8,1.1-2.1,16-1.6,24.3c0,0.5-0.6,0.6-0.7,0.1c-1.1-5-2.9-12.3-4.2-16.6c-1.5-4.6-4.9-2.2-4.9,1.2c0,7.2,1.2,22.5,1.2,22.5
			L423.4,316.8z"/>
	</g>
	<g>
		<path class="st3" d="M539.3,358l12.4,21.4l-29,93.2c-2.7,9.5-13.5,15.3-23.2,13.7l-37.3-4.1c-4.8-0.8-6.5,1.7-4.8,6.2l16.1,73.9
			c2.7,7.4-1.5,15.6-9.2,17.7l-55.5,14.8c-5.4,1.4-10.7-2.3-11.2-7.9l-3.2-19.1c-0.1-1.5-0.5-7.3,2.8-9.7c4.8-3.5,12.4-8.3,12.4-8.3
			c2.6-1.4,2.8-5.5,2.1-8.3l-21.1-82c-3.4-12.8,4.5-22.8,17.7-25c16.6-2.8,44.2-9,44.2-9l11.8-77.1c1.6-6.1,7.2-10.3,13.5-10
			l18.1,0.9L539.3,358z"/>
	</g>
	<g>
		<g>
			
				<ellipse transform="matrix(0.2298 -0.9732 0.9732 0.2298 65.528 744.6472)" class="st3" cx="503.2" cy="330.9" rx="29.7" ry="29.7"/>
		</g>
	</g>
	<g>
		<path class="st1" d="M233.4,330.5l98.8-89.3c5.1-4.6,12.6-4.3,18.6-1c12.2,6.7,33.2,18.6,51.8,38.8c15.7,17,41.7,44,44.8,66.8
			c0.4,2.6-0.6,5.2-2.4,7.1c-30.1,31.2-91.4,88.7-98.2,94.5c-16.2,13.8-58.2-17.4-82.2-45.2C254.6,390.6,220.8,342.3,233.4,330.5z"
			/>
	</g>
	<g>
		<g>
			<path class="st3" d="M555.1,363.5c-9.2-9-24.8-8.5-34.5-0.2l-34.3,31.2c-1.9,1.6-4.7,1.3-6.2-0.5l-24.3-28.4
				c-3.9-4.6-6.3-10.3-6.8-16.3l-0.9-10.8c-0.1-0.7-0.2-1.4-0.5-2.1l-4.4-11.4c-0.6-1.6-2.7-1.8-3.6-0.4c-1.2,1.9-1.9,4.8-1.9,7.6
				c0,5.5,1.3,11.5-0.8,11.5c-2.8,0-6-5.4-7.4-10.5c-1.6-5.9-2.4-10.5-5.2-13.1c-1.3-1.2-3.6-0.4-3.9,1.6c-0.8,4.5,0.1,13,0.2,17.8
				c0,1.4-1.2,1.4-1.6-0.3c-1.2-5.2-4.3-21.1-4.3-21.1c-0.5-2.1-3.4-2.3-4.2-0.3c-2.4,5.7-1.5,18.1-1.1,22.7c0,0.4-0.5,0.6-0.7,0.2
				c-1.2-2.2-3.2-6.4-4.6-11.8c-0.3-1.2-2-1.5-2.6-0.4c-1.8,3.3-0.9,11.2-0.4,14.4c0,0.3-0.4,0.4-0.5,0.2c-0.8-1.4-1.4-2.7-2-4.3
				c-0.8-2-2.5-0.9-2.6,0.4c-0.5,4.4-0.7,10.6,1.1,18.6c0.7,2.9,3.1,11.5,14,24.5l58,64.2c10.4,13.1,23.6,9.7,31.1,4.1
				c18.6-13.8,53-47.8,53-47.8C566,391.8,563.3,371.6,555.1,363.5z"/>
		</g>
	</g>
	<g>
		<path class="st4" d="M295.8,383.8c-34.7-37-52.7-47.7-61.5-48.7c-2-0.2-3.6,1.3-3.6,3.3c0.1,18,25.5,54.1,34,63.9
			c19.3,22.4,50.3,47.1,70.1,48.5c1.5,0.1,2.7-1.2,2.6-2.7C336.1,437.5,327.7,417.9,295.8,383.8z"/>
	</g>
	<g>
		<path class="st4" d="M262.2,134.3c2.7,6.6,34.2,26.9,73.7,37l1.2-2.5c-15.3-13.4-41.8-26.9-61.5-32
			C268.5,134.9,264.5,134.1,262.2,134.3z"/>
	</g>
	<path d="M337.8,75.4c-3.6-3-7.9-5-12.8-6l0.3-1.4c5.1,1,9.6,3.1,13.4,6.2L337.8,75.4z"/>
	<g>
		<g>
			<g>
				<path class="st5" d="M390.6,304.3L376,292.1c-2.3-1.9-5.3-2.8-8.2-2.5c-11.8,1.4-42.8,5.6-53.2,11.3
					c-3.8,2.1-12.2,11.3-12.2,11.3c-3,3.1-3,8.1,0,11.2l19,21c1.3,1.5,3.5,1.6,5.1,0.4l15.2-12.4c1.6-1.3,1.8-3.8,0.4-5.4l-3.1-3.3
					c-1.2-1.1-0.7-3.2,1-3.5l49.4-10.6C391.8,309.1,392.6,306,390.6,304.3z M367.9,325.8c-2.4-1.7-5.3-1.8-7.6,0l-45.9,37.9
					c-2.8,2.3-2.9,7.8-0.6,10.5c1.8,2.1,5.5,6.3,7.2,8.5c3.3,4,8.7,4.1,11.3,1.7l12.4-11.3c1.1-1,2.9-1,3.9,0.2l2.6,2.8
					c1.9,1.9,4.9,2,6.9,0.2l13.7-12.6c2.6-2.4,2.6-6.5,0-8.9l-1.3-1.2c-1.2-1.1-1.2-3,0-4.1l6.3-5.7c2.3-2.1,3.2-6.9,0.2-9.7
					C377.2,334,370.9,327.9,367.9,325.8z"/>
			</g>
		</g>
	</g>
	<g>
		<path d="M267.8,138c8.7,6.9,31.5,19.3,59.6,28.4l0.9-1.9c-11.6-9.9-38.1-22.1-59.9-27.7C267.7,136.7,267.3,137.6,267.8,138z"/>
	</g>
	<g>
		<path d="M236.5,342.3c3.9-5,38.8,27.6,50.7,39.6c20.2,20.6,49.6,60.6,42.6,62.4c-4.4,1.2-31.7-14.1-60.5-46.7
			C247.3,372.8,234.1,345.3,236.5,342.3z"/>
	</g>
	<g>
		<path class="st2" d="M469.6,54.3l-1-6.2c-0.8-5.2-6-7.7-10.9-5.9c-6.5,2.3-14.8,5-19.4,8.5c-1.8,1.4-2.8,3.6-2.6,5.9
			c1.7,20.2,3.6,35.9,4.5,42.8c0.3,2.5-0.5,4.9-2.2,6.7l-20.2,21l20.4,10.5l38.3-35.7L469.6,54.3z"/>
	</g>
	<g>
		<path class="st3" d="M336,171.3l14.6-31.6c2.5-5.5,7.9-9.1,13.9-9.4l30.3-1.7c7.5-0.4,14.7-2.6,21.2-6.3l0,0
			c5.3-3,11.8-3,17.1,0.1l0,0c3.5,2,7.8,1.7,10.9-0.9l10.9-9.3c1.3-1.1,1.9-2.7,1.8-4.3c-0.6-8.8-2.4-37.6-2.7-51.6
			c0-2,1.1-3.8,2.8-4.6c7.3-3.6,18.7-5.3,27.4-3.8c2.2,0.4,3.9,2.1,4,4.3c0.6,9.6-6,19.8-6,19.8l5.8,43.3c1.3,9.6-2.8,19-10.6,24.7
			l-36.4,26.3c-2.8,2-5.6,3.8-8.6,5.5l0,0c-7,4-14.6,7.1-22.4,9.1l-27.9,7.3L336,171.3z"/>
	</g>
	<g>
		<polygon class="st2" points="348.5,142.9 365.4,140.3 378.6,154.3 353.1,178.6 339.6,163.3 		"/>
	</g>
	<g>
		<g>
			
				<ellipse transform="matrix(0.2529 -0.9675 0.9675 0.2529 149.4024 451.3965)" class="st3" cx="367" cy="129" rx="23.7" ry="23.7"/>
		</g>
	</g>
	<g>
		<g>
			<g>
				<path class="st5" d="M306.2,120.3l4.5-6.9c0.8-1.2,0.3-2.7-1-3.3l-1.9-0.8c-1.1-0.5-1.3-2.1-0.3-2.8l20.1-13.9
					c1-0.7,0.8-2.3-0.4-2.7l-9.2-3c-1.1-0.4-2.3-0.2-3.2,0.4l-19.8,13.1c-1.2,0.8-2.2,1.9-2.9,3.2l-2.8,5.4
					c-1.4,2.7-0.2,6.1,2.6,7.3l11.3,4.9C304.4,121.5,305.6,121.2,306.2,120.3z M329.9,117.2l-1-0.6c-0.9-0.6-1.3-1.7-0.8-2.7l1.4-3
					c0.8-1.7,0.1-3.8-1.6-4.7l-4.5-2.5c-1.8-1-4-0.3-5,1.4l-13.7,25c-0.9,1.7-0.4,3.7,1.2,4.8l4.9,3.3c1.8,1.2,4.2,0.6,5.3-1.3
					l3.9-7.2c0.6-1.1,1.9-1.4,3-0.8l0.5,0.3c1.2,0.7,2.7,0.3,3.3-1l4.1-8C331.3,119.2,330.9,117.8,329.9,117.2z"/>
			</g>
		</g>
	</g>
	<g>
		<g>
			<path class="st3" d="M407.6,140.9L407.6,140.9c-6.6-5.9-16.8-5.6-23,0.8l-18.5,18.9c-1.4,1.5-3.6,2.1-5.6,1.5l-27.5-7.2
				c-1.9-0.5-3.6-1.5-5-2.9l-7.9-8.4c-0.7-0.7-1.8-0.6-2.3,0.3c-0.4,0.9-0.7,2.3-0.3,4.6c1,5.2-2,5.2-5.1,2.7c-1.6-1.3-4-3.2-6-4.8
				c-1.5-1.2-3.7-0.1-3.7,1.8c0,2.4,0.3,5.1,1.7,6.6c-2.8,8.3,1.9,18.2,9.3,22.2c8.5,4.6,54.4,18.8,54.4,18.8
				c4.5,1.3,9.3,0.1,12.6-3.2l27.5-27.6C415,158.3,414.7,147.2,407.6,140.9z"/>
		</g>
	</g>
	<g>
		<g>
			<path d="M352.6,113.2c-2.9,2.1-5.2,5.2-6.6,8.9c-3.1,8.2-0.2,17.1,6.3,22.4c3.5,2.9,8.8,3.5,14.1,0.3c3.4-2.1,6-5.5,7.5-9.6
				c2.6-7.1,0.9-14.4-3.9-19.7C366.2,111.2,357.5,109.7,352.6,113.2z"/>
		</g>
	</g>
	<g>
		<path class="st1" d="M180.7,380.6c-2.6-10.1-5.6-23-7.1-27.4c-0.1-0.2-0.3-0.6-0.4-0.8c-1.4-0.9-9.5-4.8-19-3.3
			c-2.9,0.5-12.9-0.4-17,2.6c-1.2,0.9-1.7,2.5-1.8,4.1c-0.6,8.4-2,34.2-1.7,43c0,1.6,1.1,3,2.7,3.3c17,3.5,36.7,1.9,45.5-4.8
			c1-0.7,1.5-1.9,1.4-3.1C183.1,391.9,182.5,387.3,180.7,380.6z"/>
	</g>
	<g>
		<path class="st2" d="M83.6,313.6l-28.1-8.8c-1.5-0.5-2.4-1.9-2.2-3.4l4.3-30.3c0.3-2.1-1.2-4.1-3.3-4.4l-17.5-2.7
			c-0.8-0.1-2.6,0.5-2.6,2.9c0,1.2,0.3,1.8,0.9,2.5l3.2,3.8c0.6,0.7,0.8,1.6,0.7,2.6l-3.7,23.2l12.8,27.3l31.2,3.3L83.6,313.6z"/>
	</g>
	<g>
		<path class="st3" d="M28.2,274.4l24.4,38.4c0.7,1,1.7,1.8,2.9,2l5.5,1.2c1.8,0.4,3.7,0.1,5.3-0.9l2.1-1.3c4.2-2.6,9.3-3.2,14-1.6
			l33.5,10.9l-9.8,30.5l-33-8c-2.9-0.7-5.7-1.6-8.4-2.6c-4.1-1.5-10.1-3.8-13.8-5.6c-9.5-4.6-12.5-8.3-14.1-11.1
			c-4.9-9.2-17-30-18.5-32.4c-2-3.2-6.3-3.5-8.6-4.1c-1.4-0.4-2.5-1-3.1-2.4l-0.3-0.7c-0.4-0.8-0.1-1.8,0.7-2.3l16-11.2
			C24.6,272,27.1,272.6,28.2,274.4z"/>
	</g>
	<g>
		<path class="st2" d="M130.7,344l29.5,0c2.4,0,4.9,0.7,6.2,2.2c0.8,0.9,2.1,2.7,2.8,3.7c0.5,0.6,0.3,1.5-0.4,1.3l-3.6-1.3l0.6,2.2
			c0.4,1.2-0.6,1.7-1.6,1.3l-3.6-1.7l0,0c0.1,1-1,1.7-1.9,1.2c-1.6-0.9-2.3-1.4-4.5-3c-0.6-0.4-1.2-0.6-1.9-0.5
			c-6.1,0.3-10.4,1.1-14.1,2.6c-2.8,1.1-2.8,4-2.9,4.9c-0.1,1.5-2.1,6-2.1,6l-19.2-4l-3.4-12.8L130.7,344z"/>
	</g>
	<g>
		<g>
			<ellipse class="st3" cx="119.5" cy="331.7" rx="15.2" ry="15.8"/>
		</g>
	</g>
	<g>
		<path class="st1" d="M126.1,369c0,0-9.3,16.5-10.7,26.2c-0.4,3.1,1.8,6,5,6.4c2.8,0.3,7.1,0.5,13.6,0c-0.9-2.9,1.2-29,2.1-39.6
			c0.1-1.4-1.6-2.2-2.6-1.1L126.1,369z"/>
	</g>
	<g>
		<path class="st1" d="M157.9,361.1c2,4.2,9.5,20,11.1,26.4c0.2,0.8-0.4,1.5-1.2,1.5c-7.4-0.5-14.5,0.6-17.5,1.1
			c-0.8,0.1-1.5-0.5-1.4-1.3l2.1-25.4c0-0.4,0.3-0.8,0.7-1l4.7-1.9C157,360.3,157.6,360.5,157.9,361.1z"/>
	</g>
	<path class="st5" d="M167.3,382.4c-3.4-8.9-9.9-22.3-9.9-22.3l-1.5,0.6l7.2,28.1c2,0,4.1,0.1,6.2,0.3
		C169.2,387.8,168.5,385.3,167.3,382.4"/>
	<g>
		<path class="st2" d="M169.4,389.1c0-0.1-5.6-4.6-5.6-4.6c-1-0.7-2.2-0.8-3.3-0.2l-10.9,6C152.3,389.7,160.8,388.3,169.4,389.1z"/>
	</g>
	<g>
		<path d="M114.3,336.3c-0.3,2.8,0.4,5.3,1.6,7.5c0.8,1.5,2.4,2.4,4,2.4c0,0,0,0,0,0c7.6,0,13.7-6.4,13.7-14.2c0,0,0,0,0,0
			c0-3.3-2.4-6.1-5.5-6.7c-1-0.2-2-0.2-3-0.1C119.5,325.7,114.9,330.4,114.3,336.3z"/>
	</g>
	<g>
		<path class="st3" d="M163.3,363.1l-3.3,0.4c-0.3,0-0.4-0.3-0.2-0.5l2.7-2.1c1.1-0.8,0.4-2.5-0.9-2.4c-3,0.2-6.8,0.5-9.5,0.8
			c-0.4,0-0.6-0.6-0.3-0.8c1.2-0.7,1.9-1,3.1-1.7c1.8-1,0-2.5-2.1-2.4c-3.9,0.2-7.8,2.5-10.7,2.5c-5.3,0-20.1-0.7-20.1-0.7
			c-1.2,0-2.3-0.6-2.9-1.6l-12-17.7c-3.4-4.4-9.7-5.3-14.1-1.8c-4.1,3.3-5,9.2-2,13.5l17.5,22.5c1.6,2.1,4.1,3.3,6.7,3.4l38.2-0.6
			c4.6,0,7.8-4.1,8.2-6.3c1.2-0.8,2-1.7,2.6-2.5C165.2,364.3,164.4,363,163.3,363.1z"/>
	</g>
	<g>
		<path class="st1" d="M116.2,199.8c0,0,3.2,12.2,11.4,28.7c11.6,23.4,17.3,32.8,23.2,42.9c7.3,12.2,29.4,24.7,72.2-1.8
			c44.3-27.5,37.6-45.5,34.6-51.8c-1.7-3.7-15.9-30.1-27.6-50.1c-4.6-7.8-8.9-14.5-11.8-18.8c-2.4-3.6-6.2-5.9-10.5-6.4
			c-11.7-1.3-36.4-1.2-61.8,17.2C111.1,185,116.2,199.8,116.2,199.8z"/>
	</g>
	<g>
		<path class="st4" d="M259.5,231.1c1.2-5.9-1.4-11.9-6.3-15.3c-12.5-8.7-37.1-9-68.3,10.7c-34.2,21.6-35,39.9-29.9,50.1
			c10,9.9,31.5,15.7,68.2-7C249.4,253.2,257.7,240.3,259.5,231.1z"/>
	</g>
	<g>
		<path d="M161.3,275.8c-4.3-6.1-4.3-25.2,27.6-45.8c32.2-20.7,60.5-14.8,64.6-3.7c4.2,11.2-19,31.6-44.8,44.7
			C185.5,283,166.1,282.6,161.3,275.8z"/>
	</g>
	<g>
		<path d="M133.7,397.1c-2.8,0-5.8,0.1-8.7,0.4c-6.7,0.5-7.6,2.6-6.9,3.3c0.6,0.6,1.5,0.9,2.3,1c2.8,0.3,8.5,0.5,14.7-0.2
			C133.7,400.1,133.7,399.3,133.7,397.1z"/>
	</g>
	<g>
		<path class="st1" d="M180.6,356c-2-2.5-3.1-2.2-6.8-2.2c1.5,5.3,4.2,16.6,6.9,26.9c2.7,10.3,2.7,15.5,2.7,15.5
			c3.4-0.4,6.1-1,12.7-2.1c5.4-0.9,5.9-5.4,3.1-9.5L180.6,356z"/>
	</g>
	<g>
		<path class="st4" d="M180.8,398.2c0.4-1-0.2-2-1.9-2.8c-3.2-1.6-9.5-2.9-21.8-2.2c-11.3,0.6-17.1,3.4-20,5.9
			c-1.5,1.3-1.4,2.3-0.1,3.2C154.1,406.5,171.7,404.2,180.8,398.2z"/>
	</g>
	<g>
		<path d="M196.9,394.2c1.4-0.4,1.6-1.8,0.9-2.3c-0.3-0.2-0.7-0.4-1.1-0.7c-3.4-1.7-8.7-1.7-13.9-1.1c0.6,4,0.8,4.9,0,6.3
			C187,396.1,196.4,394.3,196.9,394.2z"/>
	</g>
	<g>
		<g>
			<g>
				<path class="st5" d="M157.1,195.7c-2-5.1-2.1-10.7,0.3-14.4c0.6-0.9,1.6-2.3,1.1-3.2l-4.4-6.4c-0.9-1.6-3.4-0.6-4.5,0.9
					c-5.5,7.5-7.6,17.2-3.5,27.6c6.1,15.3,17.4,19.8,29,16.9c1.9-0.5,2.8-2.6,1.8-4.3l-3.4-5.6c-0.7-1.3-2.2-2-3.7-1.9
					C164.7,205.8,159.8,202.5,157.1,195.7z M190.2,177.7c-8.8-13.9-22.8-16.1-31.9-12.6c-1.6,0.6-2.3,2.5-1.5,3.9l5,6.8
					c0.6,1,1.8,1.5,2.9,1.3c4.9-0.9,10.9,0.9,14.8,6.9c3.1,4.7,3.1,12.2-1.9,17c-1.1,1-1,2.9-0.2,4.2l3.2,5.5c1.3,2.2,4.1,2.4,6,0.8
					C195.7,203.9,196.4,187.5,190.2,177.7z"/>
			</g>
		</g>
	</g>
	<path d="M387.4,176.7c-0.5,0-1-0.1-1.4-0.4c-3.4-2-9.5-5.8-12.3-9.4c-0.8-1-0.8-2.5,0.1-3.5l0,0l9-10.8c0.9-1.1,2.6-1.3,3.8-0.5
		c2.8,2.1,7.9,6,10.7,8.4c1.1,1,1.3,2.6,0.4,3.8c-3.1,4.2-6.3,8.8-7.8,11.2C389.2,176.3,388.3,176.7,387.4,176.7z M384.8,153
		c-0.4,0-0.8,0.2-1.1,0.5l-9,10.8c-0.4,0.5-0.4,1.2,0,1.8c2.8,3.5,9.3,7.5,12,9.1c0.6,0.4,1.5,0.2,1.9-0.4c1.6-2.4,4.7-7,7.9-11.2
		c0.4-0.6,0.4-1.4-0.2-1.9c-2.7-2.4-7.8-6.2-10.6-8.3C385.4,153.1,385.1,153,384.8,153z"/>
	<path d="M517.9,422.5c-0.2,0-0.3,0-0.5,0c-1.4-0.1-2.7-0.8-3.6-2L498.8,402c-1.8-2.2-1.5-5.4,0.6-7.3l16.4-14.9
		c1.1-1,2.5-1.5,3.9-1.4c1.5,0.1,2.8,0.8,3.7,1.9l15.7,18.8c1.9,2.2,1.6,5.6-0.6,7.5l-17.3,14.6C520.3,422,519.1,422.5,517.9,422.5z
		 M500.3,395.8c-1.5,1.4-1.7,3.8-0.4,5.4l14.9,18.5c0.7,0.8,1.6,1.3,2.7,1.4s2.1-0.2,2.9-0.9l17.3-14.6c1.7-1.4,1.9-3.9,0.5-5.5
		l-15.7-18.8c-0.7-0.8-1.7-1.3-2.7-1.4c-1.1-0.1-2.1,0.3-2.9,1L500.3,395.8z"/>
	<path d="M436.6,390.1l-1.1-0.9l7.8-9.7c0.5-0.6,0.3-1.2,0-1.5c-0.3-0.4-0.9-0.6-1.5-0.3l-8.8,4.5c-1.1,0.6-2.4,0.3-3.2-0.7
		c-0.8-1-0.8-2.3,0.1-3.3l7.8-9.2c0.5-0.6,0.3-1.2,0-1.6c-0.3-0.4-0.9-0.7-1.5-0.3l-22.6,11.5l-0.6-1.2l22.6-11.5
		c1.1-0.6,2.4-0.3,3.2,0.7c0.8,1,0.8,2.3,0,3.3l-7.8,9.2c-0.5,0.6-0.3,1.2,0,1.6s0.9,0.7,1.5,0.3l8.8-4.5c1.1-0.6,2.4-0.3,3.2,0.7
		c0.8,1,0.8,2.3,0,3.3L436.6,390.1z"/>
	<rect x="455.3" y="417.5" transform="matrix(0.3477 -0.9376 0.9376 0.3477 -85.6788 713.2915)" width="29" height="1.4"/>
	<rect x="494.5" y="409.5" transform="matrix(0.9433 -0.332 0.332 0.9433 -113.6898 188.6101)" width="1.4" height="35"/>
	<rect x="489.3" y="433.2" transform="matrix(0.9893 -0.1461 0.1461 0.9893 -59.2255 76.3274)" width="1.4" height="16.4"/>
	<rect x="466.8" y="432.8" transform="matrix(0.1875 -0.9823 0.9823 0.1875 -41.1886 817.273)" width="13.2" height="1.4"/>
	<rect x="368.5" y="164.9" transform="matrix(0.8789 -0.477 0.477 0.8789 -40.2241 197.6426)" width="1.4" height="26.3"/>
	<rect x="364.1" y="178.4" transform="matrix(0.9611 -0.2763 0.2763 0.9611 -37.0109 108.0169)" width="1.4" height="14"/>
	
		<rect x="347.3" y="177.8" transform="matrix(5.909717e-02 -0.9983 0.9983 5.909717e-02 158.0911 524.7512)" width="20.3" height="1.4"/>
	<path d="M320.8,176.2l-1.3-0.4l3.5-13.3c0.2-0.8,1-1.4,1.8-1.3c0.9,0.1,1.5,0.8,1.5,1.6l0.4,7.9c0,0.2,0.2,0.3,0.3,0.3
		s0.3,0,0.4-0.2l5.1-10.1l1.2,0.6l-5.1,10.1c-0.4,0.7-1.1,1.1-1.9,0.9c-0.8-0.2-1.3-0.8-1.4-1.6L325,163c0-0.2-0.2-0.3-0.3-0.3
		c-0.1,0-0.3,0-0.4,0.2L320.8,176.2z"/>
	<rect x="472.1" y="98.8" transform="matrix(0.1574 -0.9875 0.9875 0.1574 290.6783 558.7165)" width="1.4" height="20.5"/>
	<rect x="472.7" y="107.1" transform="matrix(0.3638 -0.9315 0.9315 0.3638 191.9436 515.5432)" width="1.4" height="20.4"/>
	<rect x="469.9" y="116.2" transform="matrix(0.758 -0.6523 0.6523 0.758 31.3901 337.5734)" width="1.4" height="20.6"/>
	<path d="M443.9,488.4L443.9,488.4l-39.5-4.5l0.2-1.4l39.4,4.5c1,0,1.5-0.7,1.6-1.3c0.2-0.6,0.1-1.5-0.8-2l-45.4-21.4
		c-1.4-0.8-1.9-2.4-1.4-3.9c0.6-1.5,2.1-2.2,3.6-1.9l36,8c1,0.2,1.7-0.4,2-1c0.3-0.6,0.3-1.5-0.5-2.1l-30.2-14.9l0.6-1.2l30.3,15
		c1.4,1,1.5,2.7,1,3.8c-0.5,1.2-1.8,2.1-3.6,1.7l-36-8c-1.1-0.3-1.8,0.4-2,1c-0.3,0.6-0.2,1.6,0.7,2.1l45.4,21.4
		c1.3,0.8,1.9,2.1,1.5,3.5C446.5,487.5,445.3,488.4,443.9,488.4z"/>
	<path d="M103.9,358.1c-0.1,0-0.3,0-0.4,0c-0.9-0.1-1.6-0.6-2.1-1.3l-3.6-5.5c-0.9-1.4-0.5-3.3,0.8-4.2l4.8-3.2
		c1.4-0.9,3.3-0.6,4.2,0.8l3.3,4.9c0.9,1.3,0.6,3-0.5,4l-4.5,3.9C105.3,357.9,104.6,358.1,103.9,358.1z M105.1,344.6
		c-0.3,0-0.6,0.1-0.9,0.3l-4.8,3.2c-0.7,0.5-1,1.5-0.5,2.3l3.6,5.5c0.3,0.4,0.7,0.7,1.1,0.7c0.5,0.1,0.9-0.1,1.3-0.4l4.5-3.9
		c0.6-0.6,0.8-1.5,0.3-2.2l-3.3-4.9C106.2,344.9,105.6,344.6,105.1,344.6z"/>
	<rect x="108.2" y="362.4" transform="matrix(0.6903 -0.7235 0.7235 0.6903 -227.4661 194.7057)" width="10.9" height="1.4"/>
	<rect x="112" y="367.5" transform="matrix(0.4435 -0.8963 0.8963 0.4435 -266.4279 307.3642)" width="4.5" height="1.4"/>
	<rect x="112.6" y="364.7" transform="matrix(0.2051 -0.9787 0.9787 0.2051 -262.6043 407.3419)" width="13.7" height="1.4"/>
	<path d="M135.9,369.3C135.9,369.3,135.9,369.3,135.9,369.3c-1,0-1.8-0.6-2.1-1.5l-1.2-3.7l1.3-0.4l1.2,3.7c0.2,0.5,0.6,0.6,0.7,0.6
		s0.6,0,0.8-0.5l1.2-2.8c0.3-0.7,0.9-1.2,1.6-1.3c0.7-0.1,1.5,0.1,2,0.6l3.6,3.7c0.3,0.3,0.7,0.3,1,0.1s0.5-0.5,0.4-0.9l-1.7-7.2
		l1.3-0.3l1.7,7.2c0.2,1-0.2,1.9-1.1,2.4c-0.9,0.5-1.9,0.3-2.6-0.4l-3.6-3.7c-0.2-0.2-0.5-0.3-0.7-0.2c-0.3,0-0.5,0.2-0.6,0.5
		l-1.2,2.8C137.6,368.8,136.8,369.3,135.9,369.3z"/>
	<rect x="37" y="315.6" transform="matrix(0.9459 -0.3246 0.3246 0.9459 -100.3922 30.8303)" width="10.5" height="1.4"/>
	<rect x="38.5" y="320.4" transform="matrix(0.7684 -0.64 0.64 0.7684 -195.7961 101.2484)" width="6.9" height="1.4"/>
	<rect x="41" y="323.5" transform="matrix(0.3623 -0.9321 0.9321 0.3623 -272.4024 250.3031)" width="11.4" height="1.4"/>
	<path d="M11.1,287.7c-0.2,0-0.3,0-0.5,0l-1.2-0.3l0.3-1.3l1.2,0.3c0.2,0,0.4,0,0.6-0.1c0.2-0.1,0.3-0.3,0.3-0.6l0.1-1
		c0.1-0.6,0.4-1.2,0.9-1.5c0.5-0.4,1.2-0.5,1.8-0.3l2.4,0.6c0.3,0.1,0.5,0,0.7-0.2c0.2-0.2,0.3-0.4,0.3-0.7l-0.1-1.3
		c-0.1-0.7,0.2-1.4,0.7-1.8c0.5-0.5,1.2-0.6,1.9-0.5l1.6,0.4c0.3,0.1,0.5,0,0.7-0.2c0.2-0.2,0.3-0.4,0.3-0.7
		c-0.1-0.8,0.2-1.5,0.8-1.9s1.4-0.6,2.1-0.3l1.8,0.7l-0.5,1.3l-1.8-0.7c-0.3-0.1-0.5-0.1-0.8,0.1c-0.2,0.2-0.3,0.4-0.3,0.7
		c0.1,0.7-0.2,1.4-0.7,1.9c-0.5,0.5-1.2,0.6-1.9,0.5l-1.6-0.4c-0.3-0.1-0.5,0-0.7,0.2c-0.2,0.2-0.3,0.4-0.3,0.7l0.1,1.3
		c0.1,0.7-0.2,1.4-0.8,1.9c-0.5,0.5-1.3,0.6-1.9,0.5l-2.4-0.6c-0.2-0.1-0.4,0-0.6,0.1c-0.2,0.1-0.3,0.3-0.3,0.6l-0.1,1
		c-0.1,0.6-0.4,1.1-0.9,1.5C12,287.5,11.6,287.7,11.1,287.7z"/>
	<path d="M461.8,62.6C461.7,62.6,461.7,62.6,461.8,62.6c-0.8,0-1.4-0.4-1.6-1.1l-1.1-2.6c-0.1-0.2-0.3-0.2-0.4-0.2c0,0,0,0,0,0
		c-0.1,0-0.3,0-0.4,0.3L457,62l-1.3-0.5l1.2-3.1c0.3-0.7,0.9-1.1,1.6-1.1c0,0,0,0,0,0c0.7,0,1.4,0.4,1.6,1.1l1.1,2.6
		c0.1,0.2,0.3,0.2,0.4,0.2c0.1,0,0.3,0,0.4-0.2l0.8-1.6c0.3-0.5,0.8-0.9,1.4-1c0.6-0.1,1.2,0.2,1.6,0.6l1.3,1.6
		c0.1,0.2,0.3,0.1,0.4,0.1c0.1,0,0.2-0.1,0.3-0.3l0.8-2.7c0.2-0.6,0.6-1,1.2-1.2c0.6-0.2,1.2,0,1.7,0.4l2.6,2.4
		c0.2,0.1,0.3,0.1,0.4,0.1c0.1,0,0.2-0.1,0.3-0.3l0.5-2.2c0.1-0.6,0.6-1.1,1.2-1.3c0.6-0.2,1.2-0.1,1.7,0.3l1.9,1.6
		c0.2,0.1,0.3,0.1,0.4,0.1c0.1,0,0.2-0.1,0.3-0.3l0.4-2.2c0.1-0.6,0.6-1.2,1.2-1.4c0.6-0.2,1.3-0.1,1.8,0.4c0.2,0.2,0.4,0.1,0.4,0.1
		c0.1,0,0.2-0.1,0.2-0.4v-1.6h1.4v1.6c0,0.7-0.4,1.3-1.1,1.6c-0.7,0.3-1.4,0.2-1.9-0.3c-0.2-0.2-0.3-0.1-0.4-0.1
		c-0.1,0-0.2,0.1-0.3,0.3l-0.4,2.2c-0.1,0.6-0.5,1.2-1.1,1.4c-0.6,0.2-1.3,0.1-1.8-0.3l-1.9-1.6c-0.2-0.1-0.3-0.1-0.4-0.1
		c-0.1,0-0.2,0.1-0.3,0.3l-0.5,2.2c-0.1,0.6-0.6,1.1-1.2,1.3c-0.6,0.2-1.3,0-1.7-0.4l-2.6-2.4c-0.2-0.1-0.3-0.1-0.4-0.1
		c-0.1,0-0.2,0.1-0.3,0.3l-0.8,2.7c-0.2,0.6-0.7,1.1-1.3,1.2c-0.6,0.1-1.3-0.1-1.7-0.6l-1.3-1.6c-0.1-0.2-0.3-0.1-0.4-0.1
		c-0.1,0-0.2,0-0.3,0.2l-0.8,1.6C463.1,62.2,462.5,62.6,461.8,62.6z"/>
	<rect x="462" y="50.8" transform="matrix(0.5038 -0.8638 0.8638 0.5038 182.4279 426.7708)" width="1.4" height="7.6"/>
	<rect x="469.2" y="47.6" transform="matrix(0.4856 -0.8742 0.8742 0.4856 195.8107 437.7938)" width="1.4" height="9.8"/>
	<rect x="476.3" y="47.1" transform="matrix(0.4286 -0.9035 0.9035 0.4286 226.5027 460.107)" width="1.4" height="7.8"/>
	<path d="M402.5,587l-1.3-0.5l2.1-5c0.5-1.2,1.5-2.1,2.8-2.5c1.3-0.4,2.6-0.1,3.7,0.6l2.2,1.5c0.8,0.5,1.7,0.7,2.6,0.4
		c0.9-0.3,1.6-1,1.9-1.9l0.4-1.2c0.4-1.3,1.5-2.4,2.8-2.8c1.3-0.4,2.8-0.1,3.9,0.8l2.2,1.8c0.8,0.6,1.7,0.8,2.7,0.5
		c0.9-0.3,1.6-1,1.9-1.9l0.6-1.8c0.4-1.4,1.4-2.4,2.8-2.8c1.4-0.4,2.8-0.2,3.9,0.7l2.6,1.9c0.8,0.6,1.7,0.8,2.7,0.4
		c0.9-0.3,1.6-1,1.9-1.9l1-3.3c0.4-1.4,1.5-2.5,3-2.9c1.4-0.4,2.9,0,4.1,1l2.1,1.9c0.8,0.7,1.8,0.9,2.8,0.6c1-0.3,1.7-1.1,2-2.1
		c0.4-1.5,1.5-2.7,3-3.1c1.5-0.4,3-0.1,4.2,1l3.2,3l-1,1l-3.2-3c-0.8-0.7-1.8-1-2.8-0.7s-1.8,1.1-2,2.1c-0.4,1.5-1.4,2.6-2.9,3.1
		s-3,0.1-4.1-0.9l-2.1-1.9c-0.7-0.7-1.8-0.9-2.7-0.6c-1,0.3-1.7,1-2,2l-1,3.3c-0.4,1.4-1.4,2.4-2.8,2.9c-1.3,0.4-2.8,0.2-3.9-0.7
		l-2.6-1.9c-0.8-0.6-1.7-0.7-2.7-0.5c-0.9,0.3-1.6,1-1.9,1.9l-0.6,1.8c-0.4,1.4-1.5,2.4-2.8,2.8c-1.4,0.4-2.8,0.1-3.9-0.7l-2.2-1.8
		c-0.8-0.6-1.7-0.8-2.7-0.5s-1.6,1-1.9,1.9l-0.4,1.2c-0.4,1.3-1.4,2.3-2.7,2.8c-1.3,0.4-2.7,0.2-3.8-0.6l-2.2-1.5
		c-0.7-0.5-1.6-0.7-2.5-0.4c-0.8,0.2-1.5,0.8-1.9,1.7L402.5,587z"/>
	<path d="M357.4,552.8H356v-6.6c0-0.9-0.5-1.7-1.2-2.2c-0.8-0.5-1.7-0.5-2.5,0l-2.9,1.6c-1.2,0.7-2.7,0.7-3.9-0.1
		c-1.2-0.7-1.9-2-1.9-3.4v-2.3c0-0.9-0.4-1.6-1.1-2.1s-1.6-0.6-2.4-0.2l-3.7,1.6c-1.2,0.5-2.6,0.4-3.7-0.4c-1.1-0.7-1.8-2-1.8-3.3
		v-0.8c0-0.9-0.4-1.6-1.1-2.1c-0.7-0.5-1.6-0.6-2.4-0.2l-3.6,1.5c-1.2,0.5-2.6,0.4-3.7-0.4c-1.1-0.7-1.7-1.9-1.7-3.3
		c0-0.9-0.4-1.6-1.1-2.1c-0.7-0.5-1.6-0.6-2.4-0.2L312,529c-1.1,0.5-2.3,0.4-3.3-0.1c-1-0.5-1.8-1.5-2-2.6l-0.4-1.6
		c-0.2-0.7-0.7-1.4-1.3-1.7c-0.7-0.3-1.5-0.4-2.2-0.1l-5,2.2l-0.6-1.3l5-2.2c1.1-0.5,2.3-0.4,3.3,0.1c1,0.5,1.8,1.5,2.1,2.6l0.4,1.6
		c0.2,0.7,0.6,1.4,1.3,1.7s1.5,0.4,2.2,0.1l2.8-1.2c1.2-0.5,2.6-0.4,3.7,0.3c1.1,0.7,1.8,2,1.8,3.3c0,0.9,0.4,1.6,1.1,2.1
		c0.7,0.5,1.6,0.6,2.4,0.2l3.6-1.5c1.2-0.5,2.6-0.4,3.7,0.4c1.1,0.7,1.7,1.9,1.7,3.3v0.8c0,0.9,0.4,1.6,1.1,2.1
		c0.7,0.5,1.6,0.6,2.4,0.2l3.7-1.6c1.2-0.5,2.6-0.4,3.7,0.4c1.1,0.7,1.7,2,1.7,3.3v2.3c0,0.9,0.5,1.7,1.2,2.2c0.8,0.5,1.7,0.5,2.5,0
		l2.9-1.6c1.2-0.7,2.7-0.7,3.9,0.1c1.2,0.7,1.9,2,1.9,3.4L357.4,552.8L357.4,552.8z"/>
	<g>
		<g>
			<path d="M512.6,341.1c-6.4,10.4-23.4,15.8-31.6,4.7c-9.2-12.4-2.6-38.7,16.5-39.8c4.4-0.3,8.7,1.2,12.1,4
				C518.4,317.2,519.8,329.5,512.6,341.1z"/>
		</g>
	</g>
	<g>
		<g>
			<path class="st6" d="M490.8,327.4c-2.3,7.3-5,15.3-8.4,11.2c-2.1-2.6-3.4-8.7-1.9-14.6c1.2-4.6,4.5-9,7.8-11.4
				c1.7-1.2,3.4-1.5,4.8-0.7C496.6,313.8,493.5,319.3,490.8,327.4z"/>
		</g>
	</g>
	<g>
		<g>
			<path class="st6" d="M358.3,125.9c-3.5,3.8-7.5,7.9-9.2,3.6c-1-2.7-0.5-7.4,2-10.7c2-2.6,5.6-4,8.7-4.1c1.6,0,3,0.6,3.9,1.7
				C366,119.4,362.2,121.7,358.3,125.9z"/>
		</g>
	</g>
	<g>
		<g>
			<path class="st6" d="M126.9,334c0-2.5,0.1-5.2,2-4.2c1.2,0.6,3.5,5.6,0.8,8.6c-0.5,0.6-1.2,0.8-1.9,0.6
				C126.2,338.8,126.8,336.8,126.9,334z"/>
		</g>
	</g>
	<g>
		<g>
			<path d="M176.6,398.4c0.3-0.6-0.2-1.3-1.6-1.8c-2.6-1-7.8-1.7-17.8-1c-9.2,0.6-13.8,2.6-16.1,4.2c-1.2,0.9-1.1,1.6,0,2.1
				C155,404.3,169.3,402.5,176.6,398.4z"/>
		</g>
	</g>
	<path d="M418.2,339.3c-1.2-5.1-4.3-20.9-4.4-21.1l1.4-0.3c0,0.2,3.2,15.9,4.3,21.1L418.2,339.3z"/>
	<path d="M432.2,341c-1.4-2.1-2.7-4.8-3.4-7.5c-0.3-1-0.5-1.9-0.7-2.8c-1.2-4.5-2.1-8-4.3-10l0.9-1c2.5,2.3,3.5,6,4.7,10.7
		c0.2,0.9,0.5,1.8,0.7,2.7c0.7,2.6,1.9,5.2,3.2,7.1L432.2,341z"/>
	<path d="M438.8,341.3l-1.4,0c0-1.1-0.1-2.5-0.2-4c-0.1-1.5-0.2-3.3-0.2-5c0-3.1,0.8-6.1,2-8l1.2,0.8c-1.1,1.7-1.8,4.5-1.8,7.3
		c0,1.6,0.1,3.3,0.2,4.9C438.7,338.7,438.8,340.1,438.8,341.3z"/>
	<path d="M483.5,396.2c-1.5,0-2.9-0.6-3.9-1.8L468.1,381l1-0.9l11.5,13.4c1.3,1.6,3.7,1.8,5.3,0.5l34.2-31.2c1.9-1.6,4-3,6.3-4
		l0.6,1.3c-2.2,1-4.2,2.3-6,3.8L486.8,395C485.8,395.8,484.6,396.2,483.5,396.2z"/>
	<path d="M485.8,456.3c-5.9,0-12.1-2.5-17.5-9.4L455,432.3l1-0.9l13.3,14.7c9.7,12.3,22.3,9.9,30.1,4.1c6.3-4.6,15-12.1,25.9-22.1
		l0.9,1c-11,10-19.7,17.5-26,22.2C496.3,454.1,491.2,456.3,485.8,456.3z"/>
	<path d="M399.8,343.4c-0.8-1.3-1.4-2.7-2.1-4.4l1.3-0.5c0.6,1.6,1.2,2.9,2,4.2L399.8,343.4z"/>
	<path d="M407.9,341c-1.1-2.1-3.2-6.4-4.7-11.9l1.3-0.4c1.4,5.4,3.5,9.6,4.6,11.6L407.9,341z"/>
	<path d="M503.2,361.3c-11.2,0-21.4-6.1-26.7-15.9l1.2-0.7c5.1,9.4,14.9,15.2,25.5,15.2V361.3z"/>
	<path d="M316.1,153.5c-1.1,0-2.4-0.6-3.9-1.7c-1.6-1.3-4-3.2-6-4.8l0.9-1.1c2,1.6,4.4,3.6,6,4.8c1.5,1.2,2.9,1.7,3.6,1.3
		c0.6-0.4,0.7-1.6,0.4-3.4c-0.4-2.1-0.3-3.8,0.3-5.1l1.2,0.6c-0.3,0.7-0.6,1.9-0.2,4.2c0.5,2.5,0.1,4.1-1,4.8
		C317,153.4,316.5,153.5,316.1,153.5z"/>
	<path d="M366.6,161.1l-1-1l18.5-18.9c6.5-6.6,17-7,23.9-0.8l-0.9,1c-6.4-5.7-16.1-5.4-22,0.8L366.6,161.1z"/>
	<rect x="385.6" y="173.7" transform="matrix(0.7054 -0.7088 0.7088 0.7054 -6.1287 334.1274)" width="26.6" height="1.4"/>
	<path d="M110.9,343.6l-4.2-6.2c-1.5-2-3.7-3.2-6.2-3.6c-2.5-0.3-4.9,0.4-6.9,1.9l-0.8-1.1c2.3-1.8,5.1-2.5,7.9-2.2
		c2.9,0.4,5.4,1.8,7.1,4.1l4.2,6.3L110.9,343.6z"/>
	
		<rect x="126.2" y="384.3" transform="matrix(5.080045e-02 -0.9987 0.9987 5.080045e-02 -257.1007 499.5606)" width="16.1" height="1.4"/>
	<rect x="177.5" y="357" transform="matrix(0.9697 -0.2444 0.2444 0.9697 -85.2183 54.8031)" width="1.4" height="27.6"/>
</g>
</svg>
